<svg data-v-423bf9ae="" xmlns="http://www.w3.org/2000/svg" viewBox="0 0 198.75296433137646 60" class="font"><!----><!----><defs data-v-423bf9ae=""><linearGradient data-v-423bf9ae="" gradientTransform="rotate(25)" id="21927dd5-33e5-4375-87f5-d7ba8f460643" x1="0%" y1="0%" x2="100%" y2="0%"><stop data-v-423bf9ae="" offset="0%" style="stop-color: rgb(0, 238, 225); stop-opacity: 1;"></stop><stop data-v-423bf9ae="" offset="100%" style="stop-color: rgb(255, 210, 51); stop-opacity: 1;"></stop></linearGradient></defs><g data-v-423bf9ae="" id="2b35b994-c635-4037-ae9b-be48f86be0b4" fill="url(#21927dd5-33e5-4375-87f5-d7ba8f460643)" transform="matrix(4.735595867300924,0,0,4.735595867300924,-1.3259676897434787,-5.588002724294483)"><path d="M3.82 1.85L4.03 1.85L4.03 1.85Q3.79 2.52 2.93 3.30L2.93 3.30L2.93 3.30Q2.07 4.09 1.58 4.03L1.58 4.03L1.58 4.03Q1.36 3.74 0.92 3.25L0.92 3.25L0.92 3.25Q0.50 3.57 0.34 3.57L0.34 3.57L0.34 3.57Q0.28 3.51 0.28 3.43L0.28 3.43L0.28 3.43Q0.28 3.02 1.29 2.10L1.29 2.10L1.29 2.10Q2.31 1.18 2.63 1.18L2.63 1.18L2.63 1.18Q2.77 1.18 3.09 1.53L3.09 1.53L3.09 1.53Q3.30 1.76 3.51 2.00L3.51 2.00L3.51 2.00Q3.61 1.96 3.82 1.85L3.82 1.85ZM4.07 9.34L4.07 9.34L4.07 9.34Q4.07 10.02 3.14 11.32L3.14 11.32L3.14 11.32Q2.20 12.61 1.67 12.60L1.67 12.60L1.50 12.60L1.50 12.60Q1.60 12.31 1.88 11.80L1.88 11.80L1.88 11.80Q2.09 11.44 2.09 11.14L2.09 11.14L2.09 11.14Q2.09 11.10 2.04 10.91L2.04 10.91L2.04 10.91Q2.00 10.72 2.00 10.67L2.00 10.67L2.00 8.53L2.00 8.53Q2.00 8.05 1.86 7.57L1.86 7.57L1.86 7.57Q1.67 6.93 1.30 6.93L1.30 6.93L1.30 6.93Q1.26 6.93 1.10 7.05L1.10 7.05L1.10 7.05Q0.94 7.17 0.88 7.17L0.88 7.17L0.63 7.17L0.63 7.17Q0.81 6.52 1.83 5.63L1.83 5.63L1.83 5.63Q2.79 4.79 3.12 4.82L3.12 4.82L3.12 4.82Q3.39 4.96 3.75 5.29L3.75 5.29L3.75 5.29Q4.00 5.80 4.00 6.64L4.00 6.64L4.00 8.76L4.00 8.76Q4.00 8.79 4.04 9.04L4.04 9.04L4.04 9.04Q4.07 9.28 4.07 9.34ZM12.96 4.40L12.96 4.40L12.96 4.40Q11.90 6.72 9.48 6.72L9.48 6.72L9.48 6.72Q9.23 6.72 7.92 6.45L7.92 6.45L7.92 6.45Q8.13 7.01 9.27 7.25L9.27 7.25L9.27 7.25Q10.96 7.63 11.19 7.73L11.19 7.73L11.19 7.73Q12.17 8.16 12.17 9.23L12.17 9.23L12.17 9.23Q12.17 9.87 10.67 11.23L10.67 11.23L10.67 11.23Q9.27 12.50 8.97 12.50L8.97 12.50L8.97 12.50Q9.03 12.50 8.12 12.14L8.12 12.14L8.12 12.14Q7.21 11.79 6.52 11.79L6.52 11.79L6.52 11.79Q6.01 11.79 5.36 11.94L5.36 11.94L5.36 11.94Q5.04 12.03 4.72 12.11L4.72 12.11L4.72 12.11Q5.46 10.77 6.40 10.25L6.40 10.25L6.40 10.25Q7.13 9.86 8.27 9.86L8.27 9.86L8.27 9.86Q8.58 9.86 9.13 10.00L9.13 10.00L9.13 10.00Q9.77 10.15 10.00 10.18L10.00 10.18L10.00 10.18Q9.42 9.55 8.23 9.30L8.23 9.30L8.23 9.30Q6.66 8.97 6.48 8.89L6.48 8.89L6.48 8.89Q5.70 8.53 5.70 7.46L5.70 7.46L5.70 7.46Q5.70 6.87 6.90 5.45L6.90 5.45L6.90 5.45Q8.09 4.03 8.72 4.03L8.72 4.03L8.72 4.03Q8.69 4.03 9.55 4.41L9.55 4.41L9.55 4.41Q10.42 4.79 11.24 4.79L11.24 4.79L11.24 4.79Q11.72 4.79 12.18 4.63L12.18 4.63L12.18 4.63Q12.78 4.42 12.96 4.40ZM19.85 5.14L20.03 5.19L20.03 5.19Q19.96 5.73 19.08 6.50L19.08 6.50L19.08 6.50Q18.19 7.28 17.54 7.43L17.54 7.43L17.54 9.17L17.54 9.17Q17.54 9.35 17.37 10.02L17.37 10.02L17.37 10.02Q17.04 11.40 16.69 12.07L16.69 12.07L16.69 12.07Q16.00 13.38 14.78 13.85L14.78 13.85L14.78 13.85Q14.85 13.72 15.25 12.47L15.25 12.47L15.25 12.47Q15.65 11.13 15.65 10.79L15.65 10.79L15.65 7.21L15.65 7.21Q15.29 7.00 14.87 7.00L14.87 7.00L14.87 7.00Q14.50 7.00 14.15 7.15L14.15 7.15L14.15 7.15Q14.07 7.18 13.48 7.52L13.48 7.52L13.30 7.46L13.30 7.46Q13.37 7.00 14.20 6.26L14.20 6.26L14.20 6.26Q14.91 5.61 15.58 5.26L15.58 5.26L15.58 3.84L15.58 3.84Q15.58 3.78 15.27 3.48L15.27 3.48L15.27 3.48Q14.95 3.18 14.91 3.18L14.91 3.18L14.91 3.18Q14.88 3.18 14.73 3.26L14.73 3.26L14.73 3.26Q14.57 3.35 14.41 3.32L14.41 3.32L14.41 3.32Q14.52 2.98 15.29 2.13L15.29 2.13L15.29 2.13Q16.14 1.18 16.56 1.18L16.56 1.18L16.56 1.18Q16.63 1.18 17.46 2.00L17.46 2.00L17.46 4.76L17.46 4.76Q17.46 5.31 17.85 5.46L17.85 5.46L17.85 5.46Q18.05 5.54 18.62 5.54L18.62 5.54L18.62 5.54Q19.03 5.54 19.12 5.52L19.12 5.52L19.12 5.52Q19.22 5.49 19.85 5.14L19.85 5.14ZM24.18 1.85L24.39 1.85L24.39 1.85Q24.15 2.52 23.29 3.30L23.29 3.30L23.29 3.30Q22.43 4.09 21.94 4.03L21.94 4.03L21.94 4.03Q21.71 3.74 21.28 3.25L21.28 3.25L21.28 3.25Q20.86 3.57 20.69 3.57L20.69 3.57L20.69 3.57Q20.64 3.51 20.64 3.43L20.64 3.43L20.64 3.43Q20.64 3.02 21.65 2.10L21.65 2.10L21.65 2.10Q22.67 1.18 22.99 1.18L22.99 1.18L22.99 1.18Q23.13 1.18 23.45 1.53L23.45 1.53L23.45 1.53Q23.66 1.76 23.87 2.00L23.87 2.00L23.87 2.00Q23.97 1.96 24.18 1.85L24.18 1.85ZM24.43 9.34L24.43 9.34L24.43 9.34Q24.43 10.02 23.49 11.32L23.49 11.32L23.49 11.32Q22.55 12.61 22.02 12.60L22.02 12.60L21.85 12.60L21.85 12.60Q21.95 12.31 22.23 11.80L22.23 11.80L22.23 11.80Q22.44 11.44 22.44 11.14L22.44 11.14L22.44 11.14Q22.44 11.10 22.40 10.91L22.40 10.91L22.40 10.91Q22.36 10.72 22.36 10.67L22.36 10.67L22.36 8.53L22.36 8.53Q22.36 8.05 22.22 7.57L22.22 7.57L22.22 7.57Q22.02 6.93 21.66 6.93L21.66 6.93L21.66 6.93Q21.62 6.93 21.46 7.05L21.46 7.05L21.46 7.05Q21.29 7.17 21.24 7.17L21.24 7.17L20.99 7.17L20.99 7.17Q21.17 6.52 22.19 5.63L22.19 5.63L22.19 5.63Q23.14 4.79 23.48 4.82L23.48 4.82L23.48 4.82Q23.74 4.96 24.11 5.29L24.11 5.29L24.11 5.29Q24.36 5.80 24.36 6.64L24.36 6.64L24.36 8.76L24.36 8.76Q24.36 8.79 24.40 9.04L24.40 9.04L24.40 9.04Q24.43 9.28 24.43 9.34ZM32.89 4.47L32.89 4.47L32.89 4.47Q32.89 5.00 31.56 5.98L31.56 5.98L31.56 5.98Q30.37 6.85 30.11 6.86L30.11 6.86L30.11 6.86Q30.03 6.87 29.81 6.89L29.81 6.89L29.81 6.89Q29.58 6.92 29.54 6.92L29.54 6.92L29.54 6.92Q28.76 6.92 28.04 6.19L28.04 6.19L28.04 6.19Q27.72 6.66 27.72 7.76L27.72 7.76L27.72 7.76Q27.72 8.78 28.24 9.53L28.24 9.53L28.24 9.53Q28.88 10.47 30.07 10.47L30.07 10.47L30.07 10.47Q30.48 10.47 30.97 10.22L30.97 10.22L30.97 10.22Q31.71 9.84 32.06 9.72L32.06 9.72L32.06 9.72Q31.85 10.57 30.55 11.50L30.55 11.50L30.55 11.50Q29.25 12.43 28.31 12.43L28.31 12.43L28.31 12.43Q27.08 12.43 26.38 11.54L26.38 11.54L26.38 11.54Q25.76 10.72 25.76 9.51L25.76 9.51L25.76 9.51Q25.76 9.49 25.86 8.50L25.86 8.50L25.86 8.50Q25.93 7.81 26.88 6.43L26.88 6.43L26.88 6.43Q27.09 6.13 28 5.22L28 5.22L28 5.22Q29.13 4.12 29.50 4.12L29.50 4.12L29.50 4.12Q29.81 4.12 30.25 4.54L30.25 4.54L30.25 4.54Q30.69 4.96 31.30 4.96L31.30 4.96L31.30 4.96Q31.64 4.96 31.96 4.77L31.96 4.77L31.96 4.77Q32.49 4.47 32.80 4.35L32.80 4.35L32.80 4.35Q32.89 4.44 32.89 4.47ZM42.25 10.65L42.25 10.65L42.25 10.65Q42.25 10.95 41.42 11.81L41.42 11.81L41.42 11.81Q40.59 12.67 40.28 12.67L40.28 12.67L40.28 12.67Q40.25 12.67 40.06 12.53L40.06 12.53L40.06 12.53Q39.87 12.39 39.76 12.39L39.76 12.39L39.76 12.39Q39.41 12.39 38.77 12.54L38.77 12.54L38.77 12.54Q38.71 12.49 38.71 12.40L38.71 12.40L38.71 12.40Q38.71 12.49 38.99 11.72L38.99 11.72L38.99 11.72Q39.27 10.95 39.27 10.47L39.27 10.47L39.27 10.47Q39.27 9.91 38.96 9.21L38.96 9.21L38.96 9.21Q38.57 8.30 37.95 8.30L37.95 8.30L37.95 8.30Q37.39 8.30 36.95 8.62L36.95 8.62L36.95 8.62Q36.81 8.72 36.13 9.35L36.13 9.35L36.13 9.91L36.13 9.91Q36.99 10.42 36.99 10.70L36.99 10.70L36.99 10.70Q36.99 11.05 36.13 11.84L36.13 11.84L36.13 11.84Q35.28 12.63 35 12.63L35 12.63L35 12.63Q34.96 12.63 34.62 12.36L34.62 12.36L34.62 12.36Q34.16 11.98 34.08 11.93L34.08 11.93L34.08 11.93Q34.06 11.76 34.02 11.40L34.02 11.40L34.02 11.40Q33.98 11.05 33.98 11.02L33.98 11.02L33.98 7.64L33.98 7.64Q33.98 7.59 33.89 6.82L33.89 6.82L33.89 6.82Q33.81 6.05 33.81 6.01L33.81 6.01L33.81 4.10L33.81 4.10Q33.81 4.02 33.22 3.54L33.22 3.54L33.22 3.54Q33.04 3.65 32.83 3.78L32.83 3.78L32.83 3.78Q32.62 3.91 32.45 3.86L32.45 3.86L32.45 3.86Q32.62 3.35 33.62 2.27L33.62 2.27L33.62 2.27Q34.62 1.19 35.03 1.22L35.03 1.22L35.03 1.22Q35.14 1.34 35.56 1.76L35.56 1.76L35.56 1.76Q35.90 2.07 35.90 2.13L35.90 2.13L35.90 4.02L35.90 4.02Q35.90 4.06 35.97 4.80L35.97 4.80L35.97 4.80Q36.05 5.54 36.05 5.60L36.05 5.60L36.05 8.55L37.88 6.05L37.88 6.05Q37.32 5.52 37.32 5.43L37.32 5.43L37.32 5.43Q37.32 5.12 38.19 4.29L38.19 4.29L38.19 4.29Q39.05 3.46 39.31 3.46L39.31 3.46L39.31 3.46Q39.41 3.46 39.75 3.83L39.75 3.83L39.75 3.83Q40.08 4.20 40.08 4.23L40.08 4.23L40.08 4.23Q40.08 4.37 39.35 5.38L39.35 5.38L39.35 5.38Q38.57 6.45 38.53 6.52L38.53 6.52L38.53 6.52Q39.24 6.23 39.80 6.23L39.80 6.23L39.80 6.23Q40.59 6.23 41.02 7.21L41.02 7.21L41.02 7.21Q41.36 7.91 41.36 8.55L41.36 8.55L41.36 8.55Q41.36 9.30 40.91 10.36L40.91 10.36L40.91 10.36Q41.02 10.39 41.32 10.35L41.32 10.35L41.32 10.35Q41.62 10.30 41.62 10.30L41.62 10.30L41.62 10.30Q41.73 10.30 41.96 10.39L41.96 10.39L41.96 10.39Q42.25 10.50 42.25 10.65Z"></path></g><!----><!----></svg>